<mxfile host="app.diagrams.net" modified="2023-08-15T19:17:49.082Z" agent="Mozilla/5.0 (Macintosh; Intel Mac OS X 10_15_7) AppleWebKit/537.36 (KHTML, like Gecko) Chrome/114.0.0.0 Safari/537.36" etag="T811OgSWcVFrp-y9RW8K" version="21.6.6" type="github">
  <diagram name="Page-1" id="WsRAoxv28s7HobD1D979">
    <mxGraphModel dx="1137" dy="617" grid="0" gridSize="10" guides="1" tooltips="1" connect="1" arrows="1" fold="1" page="1" pageScale="1" pageWidth="850" pageHeight="1100" math="0" shadow="0">
      <root>
        <mxCell id="0" />
        <mxCell id="1" parent="0" />
        <mxCell id="Ps2RTMK8U3YEBqt5qqht-20" value="Seed Germination" style="swimlane;startSize=20;horizontal=1;childLayout=treeLayout;horizontalTree=0;resizable=0;containerType=tree;fontSize=12;" vertex="1" parent="1">
          <mxGeometry x="103" y="94" width="280" height="190" as="geometry" />
        </mxCell>
        <mxCell id="Ps2RTMK8U3YEBqt5qqht-21" value="Total (671)" style="whiteSpace=wrap;html=1;" vertex="1" parent="Ps2RTMK8U3YEBqt5qqht-20">
          <mxGeometry x="90" y="40" width="100" height="40" as="geometry" />
        </mxCell>
        <mxCell id="Ps2RTMK8U3YEBqt5qqht-22" value="Training (538)" style="whiteSpace=wrap;html=1;" vertex="1" parent="Ps2RTMK8U3YEBqt5qqht-20">
          <mxGeometry x="20" y="130" width="100" height="40" as="geometry" />
        </mxCell>
        <mxCell id="Ps2RTMK8U3YEBqt5qqht-23" value="" style="edgeStyle=elbowEdgeStyle;elbow=vertical;html=1;rounded=1;curved=0;sourcePerimeterSpacing=0;targetPerimeterSpacing=0;startSize=6;endSize=6;" edge="1" parent="Ps2RTMK8U3YEBqt5qqht-20" source="Ps2RTMK8U3YEBqt5qqht-21" target="Ps2RTMK8U3YEBqt5qqht-22">
          <mxGeometry relative="1" as="geometry" />
        </mxCell>
        <mxCell id="Ps2RTMK8U3YEBqt5qqht-24" value="Test (133)" style="whiteSpace=wrap;html=1;" vertex="1" parent="Ps2RTMK8U3YEBqt5qqht-20">
          <mxGeometry x="160" y="130" width="100" height="40" as="geometry" />
        </mxCell>
        <mxCell id="Ps2RTMK8U3YEBqt5qqht-25" value="" style="edgeStyle=elbowEdgeStyle;elbow=vertical;html=1;rounded=1;curved=0;sourcePerimeterSpacing=0;targetPerimeterSpacing=0;startSize=6;endSize=6;" edge="1" parent="Ps2RTMK8U3YEBqt5qqht-20" source="Ps2RTMK8U3YEBqt5qqht-21" target="Ps2RTMK8U3YEBqt5qqht-24">
          <mxGeometry relative="1" as="geometry" />
        </mxCell>
        <mxCell id="Ps2RTMK8U3YEBqt5qqht-33" value="Seedling" style="swimlane;startSize=20;horizontal=1;childLayout=treeLayout;horizontalTree=0;resizable=0;containerType=tree;fontSize=12;" vertex="1" parent="1">
          <mxGeometry x="415" y="94" width="280" height="190" as="geometry" />
        </mxCell>
        <mxCell id="Ps2RTMK8U3YEBqt5qqht-34" value="Total (678)" style="whiteSpace=wrap;html=1;" vertex="1" parent="Ps2RTMK8U3YEBqt5qqht-33">
          <mxGeometry x="90" y="40" width="100" height="40" as="geometry" />
        </mxCell>
        <mxCell id="Ps2RTMK8U3YEBqt5qqht-35" value="Training (548)" style="whiteSpace=wrap;html=1;" vertex="1" parent="Ps2RTMK8U3YEBqt5qqht-33">
          <mxGeometry x="20" y="130" width="100" height="40" as="geometry" />
        </mxCell>
        <mxCell id="Ps2RTMK8U3YEBqt5qqht-36" value="" style="edgeStyle=elbowEdgeStyle;elbow=vertical;html=1;rounded=1;curved=0;sourcePerimeterSpacing=0;targetPerimeterSpacing=0;startSize=6;endSize=6;" edge="1" parent="Ps2RTMK8U3YEBqt5qqht-33" source="Ps2RTMK8U3YEBqt5qqht-34" target="Ps2RTMK8U3YEBqt5qqht-35">
          <mxGeometry relative="1" as="geometry" />
        </mxCell>
        <mxCell id="Ps2RTMK8U3YEBqt5qqht-37" value="Test (130)" style="whiteSpace=wrap;html=1;" vertex="1" parent="Ps2RTMK8U3YEBqt5qqht-33">
          <mxGeometry x="160" y="130" width="100" height="40" as="geometry" />
        </mxCell>
        <mxCell id="Ps2RTMK8U3YEBqt5qqht-38" value="" style="edgeStyle=elbowEdgeStyle;elbow=vertical;html=1;rounded=1;curved=0;sourcePerimeterSpacing=0;targetPerimeterSpacing=0;startSize=6;endSize=6;" edge="1" parent="Ps2RTMK8U3YEBqt5qqht-33" source="Ps2RTMK8U3YEBqt5qqht-34" target="Ps2RTMK8U3YEBqt5qqht-37">
          <mxGeometry relative="1" as="geometry" />
        </mxCell>
        <mxCell id="Ps2RTMK8U3YEBqt5qqht-39" value="Vegetative Growth" style="swimlane;startSize=20;horizontal=1;childLayout=treeLayout;horizontalTree=0;resizable=0;containerType=tree;fontSize=12;" vertex="1" parent="1">
          <mxGeometry x="103" y="311" width="280" height="190" as="geometry" />
        </mxCell>
        <mxCell id="Ps2RTMK8U3YEBqt5qqht-40" value="Total (692)" style="whiteSpace=wrap;html=1;" vertex="1" parent="Ps2RTMK8U3YEBqt5qqht-39">
          <mxGeometry x="90" y="40" width="100" height="40" as="geometry" />
        </mxCell>
        <mxCell id="Ps2RTMK8U3YEBqt5qqht-41" value="Training (556)" style="whiteSpace=wrap;html=1;" vertex="1" parent="Ps2RTMK8U3YEBqt5qqht-39">
          <mxGeometry x="20" y="130" width="100" height="40" as="geometry" />
        </mxCell>
        <mxCell id="Ps2RTMK8U3YEBqt5qqht-42" value="" style="edgeStyle=elbowEdgeStyle;elbow=vertical;html=1;rounded=1;curved=0;sourcePerimeterSpacing=0;targetPerimeterSpacing=0;startSize=6;endSize=6;" edge="1" parent="Ps2RTMK8U3YEBqt5qqht-39" source="Ps2RTMK8U3YEBqt5qqht-40" target="Ps2RTMK8U3YEBqt5qqht-41">
          <mxGeometry relative="1" as="geometry" />
        </mxCell>
        <mxCell id="Ps2RTMK8U3YEBqt5qqht-43" value="Test (136)" style="whiteSpace=wrap;html=1;" vertex="1" parent="Ps2RTMK8U3YEBqt5qqht-39">
          <mxGeometry x="160" y="130" width="100" height="40" as="geometry" />
        </mxCell>
        <mxCell id="Ps2RTMK8U3YEBqt5qqht-44" value="" style="edgeStyle=elbowEdgeStyle;elbow=vertical;html=1;rounded=1;curved=0;sourcePerimeterSpacing=0;targetPerimeterSpacing=0;startSize=6;endSize=6;" edge="1" parent="Ps2RTMK8U3YEBqt5qqht-39" source="Ps2RTMK8U3YEBqt5qqht-40" target="Ps2RTMK8U3YEBqt5qqht-43">
          <mxGeometry relative="1" as="geometry" />
        </mxCell>
        <mxCell id="Ps2RTMK8U3YEBqt5qqht-45" value="Maturity" style="swimlane;startSize=20;horizontal=1;childLayout=treeLayout;horizontalTree=0;resizable=0;containerType=tree;fontSize=12;" vertex="1" parent="1">
          <mxGeometry x="415" y="311" width="280" height="190" as="geometry" />
        </mxCell>
        <mxCell id="Ps2RTMK8U3YEBqt5qqht-46" value="Total (664)" style="whiteSpace=wrap;html=1;" vertex="1" parent="Ps2RTMK8U3YEBqt5qqht-45">
          <mxGeometry x="90" y="40" width="100" height="40" as="geometry" />
        </mxCell>
        <mxCell id="Ps2RTMK8U3YEBqt5qqht-47" value="Training (530)" style="whiteSpace=wrap;html=1;" vertex="1" parent="Ps2RTMK8U3YEBqt5qqht-45">
          <mxGeometry x="20" y="130" width="100" height="40" as="geometry" />
        </mxCell>
        <mxCell id="Ps2RTMK8U3YEBqt5qqht-48" value="" style="edgeStyle=elbowEdgeStyle;elbow=vertical;html=1;rounded=1;curved=0;sourcePerimeterSpacing=0;targetPerimeterSpacing=0;startSize=6;endSize=6;" edge="1" parent="Ps2RTMK8U3YEBqt5qqht-45" source="Ps2RTMK8U3YEBqt5qqht-46" target="Ps2RTMK8U3YEBqt5qqht-47">
          <mxGeometry relative="1" as="geometry" />
        </mxCell>
        <mxCell id="Ps2RTMK8U3YEBqt5qqht-49" value="Test (134)" style="whiteSpace=wrap;html=1;" vertex="1" parent="Ps2RTMK8U3YEBqt5qqht-45">
          <mxGeometry x="160" y="130" width="100" height="40" as="geometry" />
        </mxCell>
        <mxCell id="Ps2RTMK8U3YEBqt5qqht-50" value="" style="edgeStyle=elbowEdgeStyle;elbow=vertical;html=1;rounded=1;curved=0;sourcePerimeterSpacing=0;targetPerimeterSpacing=0;startSize=6;endSize=6;" edge="1" parent="Ps2RTMK8U3YEBqt5qqht-45" source="Ps2RTMK8U3YEBqt5qqht-46" target="Ps2RTMK8U3YEBqt5qqht-49">
          <mxGeometry relative="1" as="geometry" />
        </mxCell>
      </root>
    </mxGraphModel>
  </diagram>
</mxfile>
